<?xml version="1.0" encoding="UTF-8" standalone="no"?>
<!-- Generator: Adobe Illustrator 27.5.0, SVG Export Plug-In . SVG Version: 6.00 Build 0)  -->

<svg
   version="1.1"
   x="0px"
   y="0px"
   viewBox="0 0 415.48099 414.84796"
   xml:space="preserve"
   id="svg8"
   sodipodi:docname="phone.svg"
   width="415.48099"
   height="414.84796"
   inkscape:version="1.4.2 (2aeb623e1d, 2025-05-12)"
   xmlns:inkscape="http://www.inkscape.org/namespaces/inkscape"
   xmlns:sodipodi="http://sodipodi.sourceforge.net/DTD/sodipodi-0.dtd"
   xmlns="http://www.w3.org/2000/svg"
   xmlns:svg="http://www.w3.org/2000/svg"><defs
   id="defs8" /><sodipodi:namedview
   id="namedview8"
   pagecolor="#505050"
   bordercolor="#eeeeee"
   borderopacity="1"
   inkscape:showpageshadow="0"
   inkscape:pageopacity="0"
   inkscape:pagecheckerboard="0"
   inkscape:deskcolor="#505050"
   inkscape:zoom="1.4618182"
   inkscape:cx="224.03607"
   inkscape:cy="216.85323"
   inkscape:window-width="1691"
   inkscape:window-height="1211"
   inkscape:window-x="980"
   inkscape:window-y="201"
   inkscape:window-maximized="0"
   inkscape:current-layer="g2" />

<g
   id="Objects"
   transform="translate(-1023.9362,-847.87205)">
	<g
   id="g2">
		<path
   style="fill:#435f5d;fill-opacity:1;stroke-width:0.92003"
   d="m 1427.515,1163.4225 v 21.2933 c 0,35.2968 -25.3482,65.6018 -60.317,72.0537 -16.2952,3.0096 -33.102,4.5824 -50.2763,4.5824 -8.5869,0 -17.0821,-0.3933 -25.4741,-1.1631 -130.3299,-11.9636 -234.1165,-114.7776 -246.4437,-244.0208 -0.81,-8.5093 -1.2293,-17.13233 -1.2293,-25.85357 0,-16.81359 1.5452,-33.2678 4.4969,-49.23271 6.4219,-34.74427 37.0311,-59.92516 72.6259,-59.92516 h 22.1546 c 17.8753,0 32.3723,14.3803 32.3723,32.12223 v 70.76519 c 0,17.74292 -14.4978,32.12322 -32.3723,32.12322 h -11.0851 c 11.5736,85.0997 73.7175,146.7687 159.4797,158.2538 v -11.0003 c 0,-17.7372 14.498,-32.1221 32.3725,-32.1221 h 71.3226 c 17.8756,0 32.3733,14.3876 32.3733,32.1239 z"
   id="path1" />
		
	</g>
	
	
	
</g>
</svg>
