<?xml version="1.0" encoding="UTF-8" standalone="no"?>
<!-- Created with Inkscape (http://www.inkscape.org/) -->

<svg
   width="82.988106mm"
   height="226.95439mm"
   viewBox="0 0 82.988105 226.95439"
   version="1.1"
   id="svg1"
   xml:space="preserve"
   inkscape:version="1.4.2 (2aeb623e1d, 2025-05-12)"
   sodipodi:docname="spine.svg"
   xmlns:inkscape="http://www.inkscape.org/namespaces/inkscape"
   xmlns:sodipodi="http://sodipodi.sourceforge.net/DTD/sodipodi-0.dtd"
   xmlns="http://www.w3.org/2000/svg"
   xmlns:svg="http://www.w3.org/2000/svg"><sodipodi:namedview
     id="namedview1"
     pagecolor="#505050"
     bordercolor="#eeeeee"
     borderopacity="1"
     inkscape:showpageshadow="0"
     inkscape:pageopacity="0"
     inkscape:pagecheckerboard="0"
     inkscape:deskcolor="#505050"
     inkscape:document-units="mm"
     inkscape:zoom="0.70710678"
     inkscape:cx="-149.19953"
     inkscape:cy="285.67114"
     inkscape:window-width="2147"
     inkscape:window-height="1211"
     inkscape:window-x="1086"
     inkscape:window-y="149"
     inkscape:window-maximized="0"
     inkscape:current-layer="layer1" /><defs
     id="defs1" /><g
     inkscape:label="Layer 1"
     inkscape:groupmode="layer"
     id="layer1"
     transform="translate(-60.695334,-32.835034)"><path
       style="fill:#000000"
       id="path1"
       d="" /><path
       id="path62415"
       style="fill:#518482;fill-rule:evenodd;stroke-width:0.215543;fill-opacity:0.15137614"
       d="m 82.034105,32.835034 c -3.220853,5e-6 -5.831867,2.611021 -5.831869,5.831874 2e-6,3.220852 2.611016,5.831869 5.831869,5.831873 3.220855,0 5.831874,-2.611019 5.831876,-5.831873 -2e-6,-3.220855 -2.611021,-5.831874 -5.831876,-5.831874 z m 31.145995,1.251582 c 0,0 -6.48413,6.713901 -10.13053,13.902532 -3.772011,7.436238 -7.123853,16.468049 -7.975107,33.193642 -0.901745,17.71785 4.556092,30.13287 8.190647,38.04337 3.66423,7.97508 7.65178,14.44138 13.90254,27.37397 6.25074,12.93259 8.40617,24.03307 8.94503,37.39674 0.53437,13.25214 -0.96994,23.70975 -8.08286,42.56977 -7.11293,18.86002 -20.58438,33.19364 -20.58438,33.19364 0,0 0.64663,0.53885 5.38859,-3.01761 4.74194,-3.55646 13.14813,-13.90252 17.24345,-19.18333 4.09532,-5.28081 11.20824,-17.02792 14.11807,-23.38644 2.90984,-6.35852 7.97259,-20.77533 8.83727,-29.20609 0.86217,-8.40618 1.29326,-21.12322 -1.5088,-32.11592 -2.80206,-10.9927 -15.19579,-33.19364 -20.90769,-43.32417 -5.71189,-10.13053 -9.69944,-16.7046 -12.07042,-24.03307 -2.34976,-7.26289 -2.26319,-15.519102 -1.50879,-26.835116 0.75439,-11.316015 6.14298,-24.571918 6.14298,-24.571918 z M 71.256953,57.903712 c -3.987718,-4e-6 -7.22047,3.232556 -7.220702,7.220274 -8.96e-4,3.98854 3.232162,7.222384 7.220702,7.222384 3.988372,-2.4e-4 7.221201,-3.234012 7.22027,-7.222384 -2.32e-4,-3.987549 -3.232721,-7.220039 -7.22027,-7.220274 z M 69.424412,83.01491 c -4.820869,1.6e-4 -8.728913,3.90821 -8.729078,8.72907 -9.78e-4,4.82169 3.907387,8.73102 8.729078,8.73119 4.82169,-1.7e-4 8.730075,-3.9095 8.729077,-8.73119 -1.65e-4,-4.82086 -3.908209,-8.72891 -8.729077,-8.72907 z m 7.544012,25.11077 c -5.654185,1e-4 -10.237783,4.5837 -10.237877,10.23788 -0.0011,5.655 4.582874,10.23988 10.237877,10.23998 5.654838,-3.3e-4 10.238516,-4.58514 10.237453,-10.23998 -9.3e-5,-5.65402 -4.583433,-10.23755 -10.237453,-10.23788 z m 12.608854,25.43409 c -6.606218,2.6e-4 -11.961555,5.35559 -11.961809,11.96181 -0.0014,6.60736 5.354439,11.96449 11.961809,11.96475 6.60753,-3e-5 11.963602,-5.35722 11.962222,-11.96475 -2.5e-4,-6.60639 -5.355843,-11.96178 -11.962222,-11.96181 z m 8.514368,28.12838 c -5.654182,1e-4 -10.237778,4.58369 -10.237877,10.23788 -0.0011,5.655 4.582871,10.23989 10.237877,10.23998 5.654844,-3.2e-4 10.238534,-4.58514 10.237464,-10.23998 -1e-4,-5.65403 -4.58344,-10.23755 -10.237464,-10.23788 z M 97.9843,189.38544 c -3.999598,4e-5 -7.500554,2.68637 -8.535843,6.54965 -1.264222,4.7145 1.533147,9.56112 6.247805,10.82473 4.714858,1.26325 9.560958,-1.53527 10.823468,-6.25033 1.26308,-4.71421 -1.53449,-9.55979 -6.24865,-10.82304 -0.745841,-0.19981 -1.514645,-0.30101 -2.28678,-0.30101 z m -6.951265,28.88279 c -3.194847,1e-4 -5.991332,2.14598 -6.818239,5.23196 -1.009735,3.76601 1.225014,7.63743 4.991172,8.64657 3.766102,1.00881 7.63688,-1.22665 8.645299,-4.99285 1.008923,-3.76559 -1.225648,-7.63614 -4.991172,-8.6453 -0.5959,-0.15962 -1.210153,-0.24044 -1.82706,-0.24038 z m -12.716624,24.78746 c -2.463363,-7e-5 -4.619644,1.65444 -5.257237,4.03386 -0.778585,2.90364 0.944426,5.8886 3.848208,6.66668 2.903754,0.77796 5.888312,-0.9456 6.665835,-3.84947 0.778016,-2.9035 -0.945097,-5.88794 -3.848624,-6.66584 -0.459287,-0.12299 -0.932711,-0.18527 -1.408182,-0.18523 z"
       sodipodi:nodetypes="ssssscsssssscsssssssscccccccccccccccccccccccccccccccccccccccccccc" /></g></svg>
